<svg xmlns="http://www.w3.org/2000/svg" viewBox="0 0 1000 850" preserveAspectRatio="none"><defs><symbol id="leaf" viewBox="0 0 100 110"><path d="M48 91 18 82 26 65 7 45 29 46 26 24 43 32 54 4 64 32 82 21 79 45 97 44 82 64 87 83 59 91Z" fill="currentColor"/><path d="M54 22 52 107M52 69 28 52M53 54 73 37M52 84 72 69" fill="none" stroke="#6f3221" stroke-width="2.5" stroke-linecap="round"/></symbol><symbol id="pumpkin" viewBox="0 0 280 225"><path d="M133 54q-12-28 9-43l19 5q-18 12-13 36" fill="#59633b" stroke="#373d28" stroke-width="3"/><path d="M148 47q34-20 49 4-30 7-47-3" fill="#738347"/><path d="M140 53C61 15 4 70 17 142c8 46 49 69 122 60 77 12 119-18 124-65 8-77-50-117-123-84" fill="#d6692c" stroke="#903c20" stroke-width="3"/><ellipse cx="106" cy="130" rx="48" ry="79" fill="#e78035" stroke="#a64c25" stroke-width="3"/><ellipse cx="168" cy="129" rx="48" ry="79" fill="#eb8a38" stroke="#a64c25" stroke-width="3"/><ellipse cx="139" cy="129" rx="30" ry="80" fill="#f09b43" stroke="#af5428" stroke-width="3"/><path d="M124 78q-13 39-7 72" fill="none" stroke="#ffd18b" stroke-width="7" stroke-linecap="round" opacity=".7"/></symbol><symbol id="cinnamon" viewBox="0 0 160 100"><g stroke="#713b25" stroke-width="3" stroke-linejoin="round"><path d="M15 24 134 8 145 24 24 44Z" fill="#bd7746"/><path d="m24 44 121-20-5 13L25 58Z" fill="#925331"/><ellipse cx="21" cy="41" rx="11" ry="17" fill="#d39762"/><path d="M21 30c-12 0-9 23 0 22 8-1 6-14 0-14-4 0-4 7 0 7" fill="none"/><path d="m34 56 115-13 13 18L41 80Z" fill="#c98b53"/><path d="m41 80 87-15-2 13-83 17Z" fill="#945732"/><ellipse cx="39" cy="76" rx="11" ry="18" fill="#dca36a"/><path d="M39 64c-12 0-9 24 0 23 8-1 6-14 0-14-4 0-4 7 0 7M52 28l72-11M58 61l49-9" fill="none"/><path d="m72 19 12-2 16 64-12 2Z" fill="#e8c58b"/></g></symbol></defs><path fill="#f5e9ce" d="M0 0h1000v850H0z"/>
<use href='#leaf' x='-20' y='20' width='65' height='65' color='#b84b2d' transform='rotate(-35 25 55)'/>
<use href='#leaf' x='940' y='20' width='65' height='65' color='#a74732' transform='rotate(35 975 55)'/>
<use href='#leaf' x='-20' y='106' width='75' height='75' color='#da8735' transform='rotate(-18 25 141)'/>
<use href='#leaf' x='940' y='106' width='75' height='75' color='#c59a43' transform='rotate(18 975 141)'/>
<use href='#leaf' x='-20' y='192' width='85' height='85' color='#a74732' transform='rotate(-1 25 227)'/>
<use href='#leaf' x='940' y='192' width='85' height='85' color='#805038' transform='rotate(1 975 227)'/>
<use href='#leaf' x='-20' y='278' width='65' height='65' color='#c59a43' transform='rotate(16 25 313)'/>
<use href='#leaf' x='940' y='278' width='65' height='65' color='#b84b2d' transform='rotate(-16 975 313)'/>
<use href='#leaf' x='-20' y='364' width='75' height='75' color='#805038' transform='rotate(33 25 399)'/>
<use href='#leaf' x='940' y='364' width='75' height='75' color='#da8735' transform='rotate(-33 975 399)'/>
<use href='#leaf' x='-20' y='450' width='85' height='85' color='#b84b2d' transform='rotate(50 25 485)'/>
<use href='#leaf' x='940' y='450' width='85' height='85' color='#a74732' transform='rotate(-50 975 485)'/>
<use href='#leaf' x='-20' y='536' width='65' height='65' color='#da8735' transform='rotate(67 25 571)'/>
<use href='#leaf' x='940' y='536' width='65' height='65' color='#c59a43' transform='rotate(-67 975 571)'/>
<use href='#leaf' x='-20' y='622' width='75' height='75' color='#a74732' transform='rotate(84 25 657)'/>
<use href='#leaf' x='940' y='622' width='75' height='75' color='#805038' transform='rotate(-84 975 657)'/>
<use href='#leaf' x='135' y='760' width='60' height='66' color='#b84b2d' transform='rotate(0 165 790)'/>
<use href='#leaf' x='218' y='786' width='60' height='66' color='#da8735' transform='rotate(31 248 816)'/>
<use href='#leaf' x='301' y='760' width='60' height='66' color='#a74732' transform='rotate(62 331 790)'/>
<use href='#leaf' x='384' y='786' width='60' height='66' color='#c59a43' transform='rotate(93 414 816)'/>
<use href='#leaf' x='467' y='760' width='60' height='66' color='#805038' transform='rotate(124 497 790)'/>
<use href='#leaf' x='550' y='786' width='60' height='66' color='#b84b2d' transform='rotate(155 580 816)'/>
<use href='#leaf' x='633' y='760' width='60' height='66' color='#da8735' transform='rotate(186 663 790)'/>
<use href='#leaf' x='716' y='786' width='60' height='66' color='#a74732' transform='rotate(217 746 816)'/>
<use href='#leaf' x='799' y='760' width='60' height='66' color='#c59a43' transform='rotate(248 829 790)'/>
<use href="#leaf" x="65" y="5" width="85" height="94" color="#da8735" transform="rotate(30 105 50)"/><use href="#leaf" x="846" y="5" width="85" height="94" color="#b84b2d" transform="rotate(-30 888 50)"/><use href="#pumpkin" x="13" y="644" width="186" height="160"/><use href="#pumpkin" x="804" y="644" width="186" height="160"/><use href="#cinnamon" x="135" y="741" width="160" height="100" transform="rotate(-15 215 790)"/><use href="#cinnamon" x="705" y="741" width="160" height="100" transform="rotate(15 785 790)"/></svg>