<svg xmlns="http://www.w3.org/2000/svg" viewBox="0 0 24 24" fill="currentColor"><path d="M12 2.16c3.2 0 3.58.012 4.85.07 1.17.054 1.8.249 2.23.413.56.217.96.477 1.38.896.42.42.68.82.9 1.38.16.42.36 1.06.41 2.23.06 1.27.07 1.65.07 4.85s-.01 3.58-.07 4.85c-.05 1.17-.25 1.8-.41 2.23-.22.56-.48.96-.9 1.38-.42.42-.82.68-1.38.9-.43.16-1.06.36-2.23.41-1.27.06-1.65.07-4.85.07s-3.58-.01-4.85-.07c-1.17-.05-1.8-.25-2.23-.41a3.7 3.7 0 0 1-1.38-.9 3.7 3.7 0 0 1-.9-1.38c-.16-.43-.36-1.06-.41-2.23C2.17 15.58 2.16 15.2 2.16 12s.01-3.58.07-4.85c.05-1.17.25-1.8.41-2.23.22-.56.48-.96.9-1.38.42-.42.82-.68 1.38-.9.43-.16 1.06-.36 2.23-.41C8.42 2.17 8.8 2.16 12 2.16zm0 1.84c-3.14 0-3.51.012-4.75.069-.99.045-1.53.21-1.89.35-.47.18-.81.4-1.16.76-.36.35-.58.69-.76 1.16-.14.36-.305.9-.35 1.89C3.012 8.49 3 8.86 3 12s.012 3.51.069 4.75c.045.99.21 1.53.35 1.89.18.47.4.81.76 1.16.35.36.69.58 1.16.76.36.14.9.305 1.89.35 1.24.057 1.61.069 4.75.069s3.51-.012 4.75-.069c.99-.045 1.53-.21 1.89-.35.47-.18.81-.4 1.16-.76.36-.35.58-.69.76-1.16.14-.36.305-.9.35-1.89.057-1.24.069-1.61.069-4.75s-.012-3.51-.069-4.75c-.045-.99-.21-1.53-.35-1.89a3.07 3.07 0 0 0-.76-1.16 3.07 3.07 0 0 0-1.16-.76c-.36-.14-.9-.305-1.89-.35C15.51 4.012 15.14 4 12 4zm0 3.13a4.87 4.87 0 1 1 0 9.74 4.87 4.87 0 0 1 0-9.74zm0 8.03a3.16 3.16 0 1 0 0-6.32 3.16 3.16 0 0 0 0 6.32zm6.2-8.23a1.14 1.14 0 1 1-2.28 0 1.14 1.14 0 0 1 2.28 0z"/></svg>